#!OML:ASF F:\VICON\USERDATA\INSTALL\rory3\rory3.ASF
:FULLY-SPECIFIED
:DEGREES
3683
root -1.81429 17.6095 0.284208 7.65866 12.8453 -8.33857
lowerback 10.2171 -0.301754 -12.549
upperback 0.331283 -1.99534 -2.76837
thorax -5.0886 -0.703003 4.38881
lowerneck -22.2599 13.1139 -7.15355
upperneck 22.3957 20.376 1.46271
head 9.86727 8.87977 4.43268
rclavicle -9.54166e-015 -4.13472e-014
rhumerus -39.5008 -15.1182 -51.2927
rradius 39.6723
rwrist 18.7834
rhand -32.5908 2.93024
rfingers 7.12502
rthumb -5.81919 -26.9699
lclavicle -9.54166e-015 -4.13472e-014
lhumerus -1.37597 33.9081 -2.41143
lradius 20.6754
lwrist -23.6567
lhand -16.4205 25.2907
lfingers 7.12502
lthumb 9.79449 55.0429
rfemur -15.1207 -7.52513 24.0357
rtibia 28.3694
rfoot -20.4179 -8.88346
rtoes 2.65801
lfemur -27.0099 -3.79678 -3.89273
ltibia 37.5349
lfoot -17.3241 -2.10764
ltoes -23.1845
3684
root -1.79858 17.6084 0.283339 7.71866 13.0234 -8.46855
lowerback 10.2794 -0.325399 -12.6095
upperback 0.305224 -2.04626 -2.77714
thorax -5.14191 -0.72214 4.42137
lowerneck -22.1714 13.1708 -7.04378
upperneck 22.2411 20.3852 1.50162
head 9.80125 8.91166 4.41371
rclavicle -2.62396e-014 -1.59028e-014
rhumerus -39.3236 -15.3469 -51.2393
rradius 39.7267
rwrist 18.9617
rhand -32.8247 3.17622
rfingers 7.12502
rthumb -6.04499 -26.7175
lclavicle -2.62396e-014 -1.59028e-014
lhumerus -1.46983 34.0986 -2.86777
lradius 20.521
lwrist -23.5793
lhand -16.2789 25.3991
lfingers 7.12502
lthumb 9.9311 55.1448
rfemur -15.102 -7.63868 24.1365
rtibia 28.1522
rfoot -20.3099 -8.81306
rtoes 2.98077
lfemur -27.2618 -3.79648 -3.80033
ltibia 37.6864
lfoot -17.2866 -2.26398
ltoes -22.6977
3685
root -1.78606 17.6068 0.283465 7.77642 13.0907 -8.66947
lowerback 10.3306 -0.284259 -12.6496
upperback 0.221633 -2.01424 -2.79152
thorax -5.26599 -0.695095 4.42579
lowerneck -21.9647 13.202 -6.92466
upperneck 22.0878 20.3369 1.58062
head 9.71376 8.9263 4.38976
rclavicle -2.14687e-014 2.22639e-014
rhumerus -39.3648 -15.5779 -51.136
rradius 39.7886
rwrist 19.0818
rhand -33.0595 3.02321
rfingers 7.12502
rthumb -6.27163 -26.864
lclavicle -2.14687e-014 2.22639e-014
lhumerus -1.48624 33.8145 -3.28457
lradius 20.3812
lwrist -23.3038
lhand -16.4291 25.7166
lfingers 7.12502
lthumb 9.78621 55.4692
rfemur -15.1274 -7.65653 24.3154
rtibia 27.9773
rfoot -20.2151 -8.73405
rtoes 2.5608
lfemur -27.4649 -3.70137 -3.62158
ltibia 37.8291
lfoot -17.268 -2.39383
ltoes -22.2345
3686
root -1.77477 17.606 0.287393 7.81597 13.0827 -8.89873
lowerback 10.2642 -0.265083 -12.862
upperback 0.234298 -1.99751 -2.71383
thorax -5.20841 -0.684614 4.62147
lowerneck -22.0595 13.2371 -6.87212
upperneck 22.0702 20.3618 1.62955
head 9.72155 8.94711 4.40788
rclavicle 1.74931e-014 4.13472e-014
rhumerus -39.1898 -15.8505 -51.0696
rradius 39.8151
rwrist 19.0781
rhand -33.1533 2.51316
rfingers 7.12502
rthumb -6.36217 -27.3713
lclavicle 1.74931e-014 4.13472e-014
lhumerus -1.71391 33.6706 -3.89514
lradius 20.1624
lwrist -22.9224
lhand -16.5834 25.7212
lfingers 7.12502
lthumb 9.63731 55.4807
rfemur -15.1196 -7.64758 24.5359
rtibia 27.8126
rfoot -20.1357 -8.50513
rtoes 2.82433
lfemur -27.5956 -3.56965 -3.41095
ltibia 37.9737
lfoot -17.3342 -2.45059
ltoes -22.1288
3687
root -1.76161 17.608 0.29326 7.91871 13.0893 -8.90907
lowerback 10.1813 -0.23782 -13.2296
upperback 0.238198 -1.99031 -2.72694
thorax -5.14846 -0.675629 4.80656
lowerneck -22.0909 13.2616 -6.74217
upperneck 21.9794 20.3496 1.62092
head 9.70935 8.9554 4.38453
rclavicle -3.18055e-015 -6.36111e-015
rhumerus -39.1911 -16.0856 -51.0191
rradius 39.9255
rwrist 18.7798
rhand -33.2834 2.03095
rfingers 7.12502
rthumb -6.48779 -27.8497
lclavicle -3.18055e-015 -6.36111e-015
lhumerus -1.75063 34.258 -4.31996
lradius 19.9008
lwrist -23.2383
lhand -16.7778 25.3894
lfingers 7.12502
lthumb 9.44978 55.1575
rfemur -15.1218 -7.81742 24.5103
rtibia 27.6799
rfoot -19.9717 -8.23595
rtoes 3.01722
lfemur -27.7199 -3.47841 -3.45599
ltibia 38.0884
lfoot -17.3819 -2.50673
ltoes -22.1847
3688
root -1.74919 17.6055 0.297097 7.98409 13.1143 -9.08592
lowerback 10.1873 -0.211379 -13.454
upperback 0.204572 -1.98428 -2.69685
thorax -5.1819 -0.663163 4.96169
lowerneck -22.05 13.2665 -6.59533
upperneck 21.8903 20.3062 1.58708
head 9.69178 8.9486 4.34208
rclavicle -1.03368e-014 -1.90833e-014
rhumerus -39.3114 -16.3354 -50.9702
rradius 40.1
rwrist 18.5536
rhand -33.368 1.77455
rfingers 7.12502
rthumb -6.5695 -28.1036
lclavicle -1.03368e-014 -1.90833e-014
lhumerus -1.79795 34.3305 -4.76349
lradius 19.6841
lwrist -22.9946
lhand -17.0914 25.1477
lfingers 7.12502
lthumb 9.14717 54.9293
rfemur -15.1278 -7.93253 24.6674
rtibia 27.5695
rfoot -19.892 -8.02311
rtoes 3.58328
lfemur -27.8671 -3.4444 -3.29433
ltibia 38.1821
lfoot -17.439 -2.45531
ltoes -22.7045
